<svg width="24" height="24" viewBox="0 0 24 24" fill="none" xmlns="http://www.w3.org/2000/svg">
<path d="M19.0088 3H5.00879C3.90422 3 3.00879 3.89543 3.00879 5V19C3.00879 20.1046 3.90422 21 5.00879 21H19.0088C20.1134 21 21.0088 20.1046 21.0088 19V5C21.0088 3.89543 20.1134 3 19.0088 3Z" stroke="#575757" stroke-width="2" stroke-linecap="round" stroke-linejoin="round"/>
<path d="M16.6667 6H7.33333C6.59695 6 6 6.59695 6 7.33333V16.6667C6 17.403 6.59695 18 7.33333 18H16.6667C17.403 18 18 17.403 18 16.6667V7.33333C18 6.59695 17.403 6 16.6667 6Z" fill="#F5A603"/>
</svg>
