<svg width="23" height="23" viewBox="0 0 23 23" fill="none" xmlns="http://www.w3.org/2000/svg">
<path d="M10 3.56055H3C2.46957 3.56055 1.96086 3.77126 1.58579 4.14633C1.21071 4.52141 1 5.03011 1 5.56055V19.5605C1 20.091 1.21071 20.5997 1.58579 20.9748C1.96086 21.3498 2.46957 21.5605 3 21.5605H17C17.5304 21.5605 18.0391 21.3498 18.4142 20.9748C18.7893 20.5997 19 20.091 19 19.5605V12.5605" stroke="black" stroke-width="2" stroke-linecap="round" stroke-linejoin="round"/>
<path d="M17.5 2.06077C17.8978 1.66295 18.4374 1.43945 19 1.43945C19.5626 1.43945 20.1022 1.66295 20.5 2.06077C20.8978 2.4586 21.1213 2.99816 21.1213 3.56077C21.1213 4.12338 20.8978 4.66295 20.5 5.06077L11 14.5608L7 15.5608L8 11.5608L17.5 2.06077Z" stroke="black" stroke-width="2" stroke-linecap="round" stroke-linejoin="round"/>
</svg>
