<svg width="21" height="24" viewBox="0 0 21 24" fill="none" xmlns="http://www.w3.org/2000/svg">
<path d="M14.6776 10.375V5.5C14.6776 3.25634 12.8588 1.4375 10.6151 1.4375C8.37145 1.4375 6.55261 3.25634 6.55261 5.5V10.375M18.855 8.21617L20.2234 21.2162C20.2991 21.9358 19.7349 22.5625 19.0113 22.5625H2.21888C1.49531 22.5625 0.93108 21.9358 1.00683 21.2162L2.37525 8.21617C2.44054 7.59589 2.9636 7.125 3.5873 7.125H17.6429C18.2666 7.125 18.7897 7.59589 18.855 8.21617ZM6.95886 10.375C6.95886 10.5994 6.77697 10.7812 6.55261 10.7812C6.32824 10.7812 6.14636 10.5994 6.14636 10.375C6.14636 10.1506 6.32824 9.96875 6.55261 9.96875C6.77697 9.96875 6.95886 10.1506 6.95886 10.375ZM15.0839 10.375C15.0839 10.5994 14.902 10.7812 14.6776 10.7812C14.4532 10.7812 14.2714 10.5994 14.2714 10.375C14.2714 10.1506 14.4532 9.96875 14.6776 9.96875C14.902 9.96875 15.0839 10.1506 15.0839 10.375Z" stroke="#2D2D2D" stroke-width="1.5" stroke-linecap="round" stroke-linejoin="round"/>
</svg>
