<svg width="22" height="22" viewBox="0 0 22 22" fill="none" xmlns="http://www.w3.org/2000/svg">
<path d="M19.9319 1.4873L17.9319 3.4873M17.9319 3.4873L20.9319 6.4873L17.4319 9.9873L14.4319 6.9873M17.9319 3.4873L14.4319 6.9873M10.3219 11.0973C10.8383 11.6068 11.2487 12.2133 11.5297 12.8821C11.8106 13.5508 11.9565 14.2686 11.9589 14.9939C11.9614 15.7193 11.8203 16.438 11.5438 17.1086C11.2674 17.7792 10.861 18.3885 10.3481 18.9014C9.83515 19.4144 9.22584 19.8208 8.55522 20.0972C7.8846 20.3737 7.16591 20.5148 6.44055 20.5123C5.71518 20.5099 4.99746 20.364 4.32871 20.0831C3.65995 19.8021 3.05338 19.3916 2.54392 18.8753C1.54205 17.838 0.987677 16.4487 1.00021 15.0066C1.01274 13.5645 1.59117 12.185 2.61091 11.1653C3.63066 10.1456 5.01013 9.56713 6.45221 9.5546C7.89429 9.54207 9.2836 10.0964 10.3209 11.0983L10.3219 11.0973ZM10.3219 11.0973L14.4319 6.9873" stroke="black" stroke-width="2" stroke-linecap="round" stroke-linejoin="round"/>
</svg>
