<svg width="27" height="26" viewBox="0 0 27 26" fill="none" xmlns="http://www.w3.org/2000/svg">
<path d="M19.98 20.2852C18.4965 18.3273 16.1459 17.0625 13.5 17.0625C10.8541 17.0625 8.50355 18.3273 7.02 20.2852M19.98 20.2852C21.9863 18.4994 23.25 15.8973 23.25 13C23.25 7.61522 18.8848 3.25 13.5 3.25C8.11522 3.25 3.75 7.61522 3.75 13C3.75 15.8973 5.01371 18.4994 7.02 20.2852M19.98 20.2852C18.2575 21.8185 15.9875 22.75 13.5 22.75C11.0125 22.75 8.74255 21.8185 7.02 20.2852M16.75 10.5625C16.75 12.3574 15.2949 13.8125 13.5 13.8125C11.7051 13.8125 10.25 12.3574 10.25 10.5625C10.25 8.76757 11.7051 7.3125 13.5 7.3125C15.2949 7.3125 16.75 8.76757 16.75 10.5625Z" stroke="#2D2D2D" stroke-width="1.5" stroke-linecap="round" stroke-linejoin="round"/>
</svg>
