<svg width="27" height="26" viewBox="0 0 27 26" fill="none" xmlns="http://www.w3.org/2000/svg">
<path d="M17.5624 11.375V6.5C17.5624 4.25634 15.7435 2.4375 13.4999 2.4375C11.2562 2.4375 9.43737 4.25634 9.43737 6.5V11.375M21.7397 9.21617L23.1082 22.2162C23.1839 22.9358 22.6197 23.5625 21.8961 23.5625H5.10365C4.38007 23.5625 3.81585 22.9358 3.89159 22.2162L5.26001 9.21617C5.32531 8.59589 5.84836 8.125 6.47207 8.125H20.5277C21.1514 8.125 21.6744 8.59589 21.7397 9.21617ZM9.84362 11.375C9.84362 11.5994 9.66174 11.7812 9.43737 11.7812C9.21301 11.7812 9.03112 11.5994 9.03112 11.375C9.03112 11.1506 9.21301 10.9688 9.43737 10.9688C9.66174 10.9688 9.84362 11.1506 9.84362 11.375ZM17.9686 11.375C17.9686 11.5994 17.7867 11.7812 17.5624 11.7812C17.338 11.7812 17.1561 11.5994 17.1561 11.375C17.1561 11.1506 17.338 10.9688 17.5624 10.9688C17.7867 10.9688 17.9686 11.1506 17.9686 11.375Z" stroke="#2D2D2D" stroke-width="1.5" stroke-linecap="round" stroke-linejoin="round"/>
</svg>
