<svg width="20" height="21" viewBox="0 0 20 21" fill="none" xmlns="http://www.w3.org/2000/svg">
<path d="M10.1501 0.804688C13.5645 0.820826 16.8625 2.46967 19.4511 5.45469C20.0655 6.16452 20.1703 7.1173 19.7342 7.7664C19.2982 8.4155 18.6866 8.40032 18.0354 7.71326C13.7091 3.12779 9.06004 2.54322 4.11933 5.73938C3.37572 6.28035 2.67635 6.9241 2.03262 7.66011C1.33611 8.39652 0.670742 8.44207 0.22622 7.71326C-0.170169 7.06416 -0.0427584 6.11897 0.585802 5.40914C3.27842 2.34963 6.41555 0.903381 10.1501 0.804688Z" fill="#F5A603"/>
<path d="M9.93231 8.59766C12.8447 8.6811 15.6932 9.75894 18.2084 11.7293C18.8228 12.1924 19.0578 13.1452 18.7746 13.8208C18.4462 14.6028 17.8261 14.804 17.1098 14.2763C15.0372 12.758 12.8628 11.7521 10.4703 11.642C7.94185 11.5551 5.44214 12.3769 3.2305 14.022C3.04364 14.1549 2.87375 14.3371 2.68122 14.4434C2.42318 14.6111 2.12608 14.635 1.85493 14.5098C1.58378 14.3846 1.36066 14.1205 1.2344 13.7753C1.16191 13.6175 1.11462 13.4412 1.09552 13.2577C1.07642 13.0741 1.08594 12.8873 1.12346 12.7089C1.16097 12.5305 1.22569 12.3645 1.3135 12.2214C1.40131 12.0783 1.51031 11.9611 1.63362 11.8773C3.51997 10.3114 5.63046 9.29367 7.82862 8.88994C8.52513 8.75329 9.23014 8.69255 9.93231 8.59766Z" fill="#F5A603"/>
<path d="M9.99446 17.2146H17.4862C18.4007 17.2146 18.9019 17.7498 18.8877 18.7102C18.8736 19.6706 18.3894 20.1906 17.5343 20.1944C12.5153 20.1944 7.49532 20.1944 2.47439 20.1944C1.60799 20.1944 1.12383 19.6516 1.11251 18.7254C1.10118 17.7992 1.56269 17.207 2.3583 17.207C4.90369 17.207 7.44907 17.2146 9.99446 17.2146Z" fill="#F5A603"/>
</svg>
