<svg width="20" height="21" viewBox="0 0 20 21" fill="none" xmlns="http://www.w3.org/2000/svg">
<g clip-path="url(#clip0_2691_2714)">
<path d="M9.99967 14.5399C12.3009 14.5399 14.1663 12.7314 14.1663 10.5004C14.1663 8.26948 12.3009 6.46094 9.99967 6.46094C7.69849 6.46094 5.83301 8.26948 5.83301 10.5004C5.83301 12.7314 7.69849 14.5399 9.99967 14.5399Z" stroke="#F5A603" stroke-width="2" stroke-linecap="round" stroke-linejoin="round"/>
<path d="M10 1.61328V3.22908" stroke="#F5A603" stroke-width="2" stroke-linecap="round" stroke-linejoin="round"/>
<path d="M10 17.7715V19.3873" stroke="#F5A603" stroke-width="2" stroke-linecap="round" stroke-linejoin="round"/>
<path d="M3.5166 4.21484L4.69993 5.36206" stroke="#F5A603" stroke-width="2" stroke-linecap="round" stroke-linejoin="round"/>
<path d="M15.2998 15.6367L16.4831 16.7839" stroke="#F5A603" stroke-width="2" stroke-linecap="round" stroke-linejoin="round"/>
<path d="M0.833008 10.5H2.49967" stroke="#F5A603" stroke-width="2" stroke-linecap="round" stroke-linejoin="round"/>
<path d="M17.5 10.5H19.1667" stroke="#F5A603" stroke-width="2" stroke-linecap="round" stroke-linejoin="round"/>
<path d="M3.5166 16.7839L4.69993 15.6367" stroke="#F5A603" stroke-width="2" stroke-linecap="round" stroke-linejoin="round"/>
<path d="M15.2998 5.36206L16.4831 4.21484" stroke="#F5A603" stroke-width="2" stroke-linecap="round" stroke-linejoin="round"/>
</g>
<defs>
<clipPath id="clip0_2691_2714">
<rect width="20" height="19.3895" fill="white" transform="translate(0 0.804688)"/>
</clipPath>
</defs>
</svg>
