<svg width="34" height="34" viewBox="0 0 34 34" fill="none" xmlns="http://www.w3.org/2000/svg">
<path d="M15.5834 5.66602H5.66671C4.91526 5.66602 4.19459 5.96453 3.66324 6.49588C3.13188 7.02723 2.83337 7.7479 2.83337 8.49935V28.3327C2.83337 29.0841 3.13188 29.8048 3.66324 30.3362C4.19459 30.8675 4.91526 31.166 5.66671 31.166H25.5C26.2515 31.166 26.9722 30.8675 27.5035 30.3362C28.0349 29.8048 28.3334 29.0841 28.3334 28.3327V18.416" stroke="black" stroke-width="2" stroke-linecap="round" stroke-linejoin="round"/>
<path d="M26.2084 3.54231C26.772 2.97873 27.5363 2.66211 28.3334 2.66211C29.1304 2.66211 29.8948 2.97873 30.4584 3.54231C31.022 4.1059 31.3386 4.87028 31.3386 5.66731C31.3386 6.46434 31.022 7.22873 30.4584 7.79231L17 21.2506L11.3334 22.6673L12.75 17.0006L26.2084 3.54231Z" stroke="black" stroke-width="2" stroke-linecap="round" stroke-linejoin="round"/>
</svg>
