<svg width="20" height="21" viewBox="0 0 20 21" fill="none" xmlns="http://www.w3.org/2000/svg">
<path d="M20.0002 9.9485C19.78 10.3191 19.6269 10.8149 19.3619 10.9611C19.0439 11.0802 18.7066 11.049 18.4026 10.8724C18.1898 10.7732 18.0293 10.4183 17.8613 10.1781C16.9207 8.95154 16.0883 8.98808 15.185 10.2617C14.7531 10.9411 14.2784 11.5648 13.7665 12.1251C13.1755 12.6542 12.4744 12.8904 11.7759 12.7958C11.0773 12.7011 10.4218 12.2811 9.91436 11.6031C9.54109 11.0811 9.16782 10.5592 8.79455 10.0372C8.65123 9.80613 8.47408 9.62079 8.27508 9.49378C8.07608 9.36676 7.8599 9.30103 7.64115 9.30103C7.4224 9.30103 7.20619 9.36676 7.0072 9.49378C6.8082 9.62079 6.63104 9.80613 6.48773 10.0372C6.08086 10.5592 5.74118 11.196 5.30072 11.6971C4.93096 12.1308 4.49871 12.448 4.03339 12.6272C3.56807 12.8063 3.08062 12.8431 2.6042 12.7352C2.12779 12.6272 1.67361 12.3769 1.27258 12.0014C0.871543 11.6259 0.533064 11.134 0.280206 10.5592C-0.00348148 9.92239 -0.178919 9.13945 0.351128 8.73232C0.559103 8.59294 0.786782 8.52058 1.01741 8.52058C1.24804 8.52058 1.47574 8.59294 1.68371 8.73232C3.52021 10.5174 3.68446 10.5383 5.21114 8.25733C6.84234 5.80934 8.92146 5.89286 10.5228 8.46091C11.8367 10.5488 12.6953 10.5488 14.0054 8.46091C15.6777 5.75193 17.9995 5.85109 19.5373 8.69578C19.7141 9.09633 19.8688 9.51512 20.0002 9.9485Z" fill="#F5A603"/>
<path d="M19.8993 16.9691C19.8993 18.1696 19.0968 18.8012 18.4809 18.2897C18.2308 18.0335 17.9995 17.7432 17.7904 17.4232C16.9766 16.3793 16.1293 16.3793 15.323 17.465C14.8507 18.2074 14.3268 18.8823 13.759 19.4797C12.4003 20.6855 10.9184 20.3305 9.69407 18.6655C7.63361 15.8573 7.63359 15.8573 5.56939 18.6655C3.92326 20.9151 1.54552 20.5654 0.295055 17.893C-0.00729536 17.251 -0.130462 16.5985 0.332396 16.0244C0.795254 15.4502 1.28424 15.5494 1.75083 16.1131C3.21405 17.8773 3.63959 17.8825 4.99456 15.8782C6.05466 14.3123 7.23421 13.3049 8.78329 14.1088C9.43059 14.5072 10.0087 15.0966 10.4779 15.8365C11.8628 17.8512 12.6355 17.8878 14.0016 15.8365C15.2745 13.9156 16.4727 13.3571 17.8837 14.1818C18.3395 14.4257 18.754 14.7993 19.101 15.2792C19.448 15.759 19.7199 16.3345 19.8993 16.9691Z" fill="#F5A603"/>
<path d="M9.92911 3.85816H1.53422C0.518921 3.85816 -0.00738712 3.3362 7.8325e-05 2.33926C0.00754377 1.34231 0.54879 0.804688 1.54169 0.804688H18.6189C19.3655 0.851664 19.9254 1.25357 19.8955 2.41755C19.8656 3.58152 19.3244 3.86338 18.6114 3.85816C16.4651 3.85816 14.3188 3.85816 12.1725 3.85816H9.92911Z" fill="#F5A603"/>
</svg>
