<svg width="20" height="21" viewBox="0 0 20 21" fill="none" xmlns="http://www.w3.org/2000/svg">
<path d="M10.0709 17.4571H18.4689C18.6571 17.4359 18.8463 17.4359 19.0345 17.4571C19.2914 17.498 19.5282 17.6518 19.7024 17.891C19.8766 18.1302 19.9768 18.4391 19.985 18.7623C19.9932 19.0854 19.9088 19.4016 19.747 19.654C19.5852 19.9065 19.3567 20.0787 19.1023 20.1397C18.8706 20.1864 18.6356 20.2029 18.4011 20.1891H1.60214C1.41352 20.1975 1.22466 20.1916 1.03662 20.1714C0.894838 20.1633 0.755747 20.1203 0.627332 20.0448C0.498917 19.9694 0.383704 19.863 0.288324 19.7318C0.192945 19.6006 0.119273 19.4472 0.0715408 19.2803C0.0238087 19.1135 0.00295938 18.9365 0.010187 18.7596C0.00967253 18.5824 0.037948 18.407 0.0933038 18.2439C0.14866 18.0809 0.229951 17.9335 0.332247 17.8107C0.434543 17.688 0.555727 17.5924 0.688462 17.5298C0.821196 17.4672 0.962716 17.4389 1.10448 17.4465C1.64455 17.4218 2.18747 17.4465 2.72755 17.4465L10.0709 17.4571Z" fill="#F5A603"/>
<path d="M9.98307 14.6304C7.08946 14.6304 4.19586 14.6304 1.30225 14.6304C0.697142 14.6304 0.233414 14.4009 0.0496183 13.6315C0.00458992 13.4553 -0.0100257 13.2692 0.00673102 13.0854C0.0234877 12.9016 0.0712353 12.7244 0.146835 12.5653C0.222435 12.4063 0.324167 12.269 0.445337 12.1626C0.566508 12.0561 0.704374 11.9829 0.849841 11.9478C1.12968 11.8857 1.41425 11.8632 1.69813 11.8808H18.3557C18.497 11.8808 18.6384 11.8808 18.7798 11.8808C19.5659 11.9302 20.0296 12.4808 19.9985 13.3279C19.9674 14.175 19.5178 14.6198 18.743 14.6233C15.823 14.6327 12.9031 14.6351 9.98307 14.6304Z" fill="#F5A603"/>
<path d="M5.05478 8.9687C3.83042 8.9687 2.60606 8.9687 1.37887 8.9687C0.530583 8.9687 0.0272544 8.44983 0.0244268 7.59918C0.0215991 6.74853 0.490986 6.2791 1.40431 6.28262C3.33275 6.28262 5.26968 6.44851 7.19247 6.31086C8.66364 6.1948 10.1216 5.89325 11.5442 5.4108C13.0061 4.92723 14.1513 3.70244 15.1268 2.26586C15.3417 1.95172 15.5368 1.62346 15.763 1.32344C15.9497 1.03817 16.2182 0.855245 16.5114 0.813701C16.8046 0.772157 17.0992 0.875289 17.3323 1.10108C17.8272 1.58464 17.8979 2.33999 17.4737 3.04945C16.4341 4.8415 15.08 6.3132 13.515 7.35211C11.5357 8.60867 9.42063 9.00046 7.2377 9.04635C6.50817 9.064 5.77865 9.04635 5.04912 9.04635L5.05478 8.9687Z" fill="#F5A603"/>
</svg>
