<svg width="20" height="25" viewBox="0 0 20 25" fill="none" xmlns="http://www.w3.org/2000/svg">
<path d="M10.0219 24.9999C1.9176 25.0382 -2.63772 17.2095 1.63583 10.333C3.64849 7.09282 6.09052 4.10192 8.3447 1.02155C9.1028 0.00540856 10.3238 -0.473906 11.1423 0.638095C13.9399 4.47258 17.0663 8.1473 19.099 12.3205C22.118 18.4685 17.1602 24.9679 10.0219 24.9999ZM9.92802 3.9741C7.7141 7.34845 5.6008 10.2051 3.89004 13.2791C3.32696 14.2459 3.08933 15.3541 3.20933 16.4537C3.32932 17.5534 3.80115 18.5913 4.56093 19.4271C6.78827 22.0217 10.6794 22.7375 13.43 21.1334C16.543 19.3184 17.6365 15.9696 15.7849 12.672C14.1814 9.78334 12.1151 7.1695 9.92802 3.9741Z" fill="#F5A603"/>
<path d="M9.89405 20.1681C9.71291 20.002 9.04875 19.6633 8.94141 19.2031C8.97475 18.9532 9.07327 18.7153 9.22796 18.511C9.38265 18.3067 9.58859 18.1426 9.82698 18.0336C10.522 17.9397 11.1659 17.6324 11.6611 17.1584C12.1563 16.6844 12.4757 16.0695 12.5709 15.407C12.688 15.1753 12.8666 14.9768 13.089 14.8311C13.3114 14.6853 13.5699 14.5975 13.8389 14.5762C14.0881 14.6903 14.3045 14.8604 14.4693 15.072C14.6342 15.2835 14.7424 15.5301 14.7848 15.7904C14.966 17.8483 12.638 20.0978 9.89405 20.1681Z" fill="#F5A603"/>
</svg>
