<svg width="41" height="40" viewBox="0 0 41 40" fill="none" xmlns="http://www.w3.org/2000/svg">
<path d="M35.5001 21.3167C35.2379 24.1537 34.1732 26.8573 32.4305 29.1113C30.6878 31.3653 28.3392 33.0763 25.6596 34.0442C22.9799 35.0121 20.0801 35.1969 17.2992 34.5768C14.5184 33.9568 11.9717 32.5576 9.95712 30.543C7.94251 28.5283 6.54331 25.9816 5.92326 23.2008C5.30321 20.42 5.48794 17.5201 6.45585 14.8405C7.42375 12.1608 9.1348 9.81228 11.3888 8.06959C13.6427 6.3269 16.3464 5.26218 19.1834 5C17.5224 7.24711 16.7232 10.0157 16.931 12.8024C17.1388 15.589 18.3398 18.2084 20.3157 20.1843C22.2916 22.1602 24.9111 23.3613 27.6977 23.5691C30.4843 23.7769 33.253 22.9776 35.5001 21.3167Z" stroke="#575757" stroke-width="2" stroke-linecap="round" stroke-linejoin="round"/>
</svg>
