<svg width="20" height="21" viewBox="0 0 20 21" fill="none" xmlns="http://www.w3.org/2000/svg">
<path d="M11.3845 15.0084C11.3909 16.0279 11.0635 17.0263 10.4437 17.8774C9.82396 18.7284 8.93956 19.394 7.90235 19.7898C6.86514 20.1857 5.72167 20.2941 4.61645 20.1014C3.51122 19.9087 2.49388 19.4235 1.69297 18.7072C0.89206 17.9909 0.343542 17.0755 0.116754 16.0769C-0.110033 15.0782 -0.00490658 14.0411 0.418827 13.0965C0.84256 12.152 1.56589 11.3424 2.4974 10.7701C3.4289 10.1979 4.52676 9.88864 5.65224 9.88147C6.40208 9.87098 7.14672 9.99595 7.84266 10.2491C8.5386 10.5022 9.17189 10.8784 9.70555 11.3557C10.2392 11.833 10.6625 12.4018 10.9508 13.029C11.239 13.6561 11.3865 14.329 11.3845 15.0084ZM8.59278 15.0676C8.59923 14.55 8.43592 14.0423 8.12355 13.6088C7.81118 13.1754 7.3638 12.8357 6.83811 12.6328C6.31241 12.4299 5.73207 12.3729 5.1706 12.4691C4.60914 12.5653 4.09182 12.8103 3.68421 13.1731C3.27661 13.5359 2.99706 14.0001 2.88098 14.5069C2.76491 15.0138 2.81755 15.5404 3.03221 16.0202C3.24687 16.4999 3.61388 16.9111 4.08677 17.2017C4.55966 17.4922 5.11715 17.6491 5.68856 17.6524C6.44811 17.6467 7.17551 17.3739 7.71734 16.8917C8.25916 16.4094 8.57304 15.7554 8.59278 15.0676Z" fill="#F5A603"/>
<path d="M10.0267 4.70839C10.02 4.20099 10.1238 3.69736 10.3323 3.22638C10.5408 2.7554 10.8499 2.32631 11.2417 1.9637C11.6336 1.60108 12.1006 1.31206 12.6159 1.11321C13.1313 0.91435 13.6849 0.809564 14.2451 0.804842C14.8062 0.800307 15.3628 0.89593 15.8831 1.08626C16.4034 1.27659 16.8773 1.5579 17.2776 1.91412C17.6779 2.27034 17.9968 2.69449 18.2162 3.16236C18.4355 3.63024 18.551 4.13267 18.556 4.64097C18.561 5.14927 18.4554 5.65349 18.2453 6.12484C18.0352 6.59619 17.7247 7.02544 17.3315 7.38807C16.9382 7.7507 16.47 8.03962 15.9535 8.23833C15.437 8.43703 14.8824 8.54163 14.3213 8.54617C13.761 8.55007 13.2053 8.45385 12.6861 8.26301C12.1669 8.07218 11.6944 7.79046 11.2955 7.434C10.8966 7.07754 10.5792 6.65334 10.3615 6.18565C10.1438 5.71796 10.03 5.21596 10.0267 4.70839ZM14.2813 3.36336C13.8962 3.36336 13.5269 3.50195 13.2545 3.74864C12.9822 3.99533 12.8292 4.32992 12.8292 4.6788C12.8292 5.02767 12.9822 5.36226 13.2545 5.60895C13.5269 5.85564 13.8962 5.99423 14.2813 5.99423C14.6665 5.99423 15.0358 5.85564 15.3081 5.60895C15.5805 5.36226 15.7335 5.02767 15.7335 4.6788C15.7335 4.32992 15.5805 3.99533 15.3081 3.74864C15.0358 3.50195 14.6665 3.36336 14.2813 3.36336Z" fill="#F5A603"/>
<path d="M4.27642 7.2568C3.71188 7.25415 3.16092 7.09967 2.69344 6.81295C2.22597 6.52623 1.86304 6.12018 1.65069 5.64633C1.43834 5.17248 1.38614 4.65217 1.50071 4.1514C1.61528 3.65063 1.89144 3.19197 2.29419 2.8336C2.69694 2.47523 3.20813 2.2333 3.76289 2.1385C4.31766 2.04369 4.89099 2.10029 5.41019 2.30111C5.92939 2.50193 6.37105 2.83792 6.67915 3.26646C6.98724 3.695 7.14789 4.19678 7.14071 4.70815C7.1174 5.38534 6.80659 6.02827 6.27302 6.50304C5.73946 6.97781 5.02426 7.24781 4.27642 7.2568Z" fill="#F5A603"/>
<path d="M18.532 12.4559C18.8103 12.4467 19.0854 12.5121 19.3229 12.6438C19.5604 12.7755 19.7498 12.9677 19.8673 13.1964C19.9848 13.4251 20.0253 13.6801 19.9836 13.9295C19.942 14.1789 19.82 14.4117 19.6331 14.5986C19.4461 14.7856 19.2025 14.9185 18.9326 14.9806C18.6627 15.0428 18.3786 15.0315 18.1158 14.9481C17.8529 14.8647 17.6231 14.713 17.455 14.5118C17.2869 14.3107 17.188 14.0692 17.1707 13.8174C17.1519 13.4733 17.2848 13.1366 17.5401 12.8813C17.7954 12.626 18.1522 12.473 18.532 12.4559Z" fill="#F5A603"/>
</svg>
