<svg width="20" height="21" viewBox="0 0 20 21" fill="none" xmlns="http://www.w3.org/2000/svg">
<g clip-path="url(#clip0_2691_3100)">
<path d="M10.0002 14.5399C12.3013 14.5399 14.1668 12.7314 14.1668 10.5004C14.1668 8.26948 12.3013 6.46094 10.0002 6.46094C7.69897 6.46094 5.8335 8.26948 5.8335 10.5004C5.8335 12.7314 7.69897 14.5399 10.0002 14.5399Z" stroke="#F5A603" stroke-width="2" stroke-linecap="round" stroke-linejoin="round"/>
<path d="M10 1.61328V3.22908" stroke="#F5A603" stroke-width="2" stroke-linecap="round" stroke-linejoin="round"/>
<path d="M10 17.7715V19.3873" stroke="#F5A603" stroke-width="2" stroke-linecap="round" stroke-linejoin="round"/>
<path d="M3.5166 4.21484L4.69993 5.36206" stroke="#F5A603" stroke-width="2" stroke-linecap="round" stroke-linejoin="round"/>
<path d="M15.2998 15.6367L16.4831 16.7839" stroke="#F5A603" stroke-width="2" stroke-linecap="round" stroke-linejoin="round"/>
<path d="M0.833496 10.5H2.50016" stroke="#F5A603" stroke-width="2" stroke-linecap="round" stroke-linejoin="round"/>
<path d="M17.5 10.5H19.1667" stroke="#F5A603" stroke-width="2" stroke-linecap="round" stroke-linejoin="round"/>
<path d="M3.5166 16.7839L4.69993 15.6367" stroke="#F5A603" stroke-width="2" stroke-linecap="round" stroke-linejoin="round"/>
<path d="M15.2998 5.36206L16.4831 4.21484" stroke="#F5A603" stroke-width="2" stroke-linecap="round" stroke-linejoin="round"/>
</g>
<defs>
<clipPath id="clip0_2691_3100">
<rect width="20" height="19.3895" fill="white" transform="translate(0 0.804688)"/>
</clipPath>
</defs>
</svg>
