<svg width="20" height="21" viewBox="0 0 20 21" fill="none" xmlns="http://www.w3.org/2000/svg">
<path d="M18.0253 15.1311C18.266 15.1979 18.7638 15.1857 19.0318 15.4526C19.4049 15.9271 19.7296 16.4459 20 16.9994C19.5186 17.3512 18.9333 18.1033 18.5723 17.9881C17.1336 17.5271 16.1326 18.1761 14.9565 18.9586C11.1767 21.4759 6.05114 20.0383 3.28325 15.6346C0.859982 11.7889 -0.0371204 7.36098 0.00117058 2.70858C0.0260485 2.34947 0.121154 2.00068 0.279852 1.68643C0.438551 1.37219 0.657065 1.10003 0.920183 0.888865C1.28668 0.652303 2.17831 0.949523 2.56122 1.34379C4.48124 3.16351 6.83337 3.47286 9.16365 3.93992C12.7575 4.65567 15.7278 6.43292 17.1938 10.3635C17.7627 11.7526 17.7572 13.3721 18.0253 15.1311ZM13.3921 16.7507L12.4622 16.1017C10.2741 14.5792 8.08605 13.0688 5.89799 11.516C5.19234 11.0004 4.96805 10.0723 5.60806 9.4597C5.95815 9.12002 6.80602 9.27774 7.38585 9.42938C7.78517 9.53856 8.10244 10.036 8.47988 10.3271C10.4929 12.0437 12.6044 13.5541 15.1917 14.288C15.2635 13.9505 15.3147 13.608 15.3449 13.2629C15.3887 10.7578 13.5999 8.17378 10.8703 7.26999C8.14073 6.3662 5.40022 5.78388 2.56122 5.04386C2.71855 8.17001 3.59823 11.1988 5.11577 13.8391C7.03578 17.054 10.6078 18.2793 13.3921 16.7507Z" fill="#F5A603"/>
</svg>
