<svg width="20" height="21" viewBox="0 0 20 21" fill="none" xmlns="http://www.w3.org/2000/svg">
<path d="M16.3724 2.63209C17.7623 1.56441 18.2469 1.44098 18.8431 1.98716C19.4392 2.53334 19.2894 3.07644 18.1863 4.39099C20.3478 7.03859 20.5677 8.9487 18.8972 10.5626C17.1789 12.2165 15.3363 12.0191 12.5213 9.85591C12.3682 9.98552 12.2025 10.112 12.059 10.254C11.1186 11.1581 10.1845 12.0653 9.2504 12.9664C11.482 15.5153 11.7785 17.4007 10.0697 19.0639C9.4999 19.6142 8.77177 19.9852 7.98055 20.1284C7.18933 20.2715 6.37189 20.1801 5.63521 19.8662C4.90516 19.5823 4.30263 18.9806 3.74473 18.5887C3.15846 18.9013 2.55017 19.1735 1.92438 19.4033C1.71078 19.4681 1.32186 19.2213 1.11783 19.0176C0.569494 18.4714 0.767147 17.9129 1.89251 16.6909C0.719327 15.6418 -0.288082 14.4352 0.0753488 12.7782C0.248631 11.9323 0.655114 11.1475 1.25172 10.507C2.95729 8.83144 4.89241 9.10916 7.37586 11.1736L10.6148 7.99519C8.6351 6.17149 7.86999 3.96824 10.296 1.77733C12.0112 0.21592 13.704 0.558439 16.3724 2.63209ZM8.92202 16.6169C8.66698 16.154 8.55859 15.7899 8.31949 15.5492C7.20157 14.4177 6.06133 13.3069 4.89878 12.2165C4.63835 11.9732 4.29185 11.8352 3.92991 11.8306C3.56797 11.826 3.21785 11.9552 2.95092 12.1919C2.80643 12.3079 2.68875 12.452 2.60554 12.6149C2.52234 12.7778 2.47545 12.9559 2.46794 13.1374C2.46042 13.319 2.49244 13.5001 2.56192 13.6689C2.63139 13.8377 2.73678 13.9905 2.87122 14.1174C4.02528 15.2869 5.1857 16.4564 6.4322 17.5272C6.63991 17.6663 6.87776 17.7575 7.12753 17.7939C7.37731 17.8303 7.63238 17.8108 7.87318 17.737C8.30356 17.5704 8.57134 17.018 8.92202 16.6169ZM12.6934 3.0857C12.263 3.42205 11.7721 3.66274 11.5075 4.05155C11.3553 4.29657 11.2974 4.58575 11.3441 4.86806C11.3907 5.15036 11.5389 5.40763 11.7625 5.59444C12.8911 6.71458 14.0196 7.83165 15.1896 8.90859C15.3248 9.03218 15.4839 9.12878 15.6577 9.19288C15.8315 9.25698 16.0166 9.28732 16.2025 9.28216C16.3884 9.277 16.5715 9.23645 16.7412 9.16282C16.9109 9.08919 17.064 8.98392 17.1917 8.85303C17.3194 8.72214 17.4192 8.56819 17.4854 8.39997C17.5516 8.23174 17.583 8.05254 17.5776 7.87259C17.5723 7.69265 17.5304 7.51548 17.4543 7.3512C17.3783 7.18692 17.2695 7.03876 17.1343 6.91516C16.0568 5.85674 14.9792 4.79831 13.8698 3.77074C13.5025 3.50464 13.1084 3.27512 12.6934 3.0857Z" fill="#F5A603"/>
</svg>
