<svg width="20" height="21" viewBox="0 0 20 21" fill="none" xmlns="http://www.w3.org/2000/svg">
<path d="M8.34472 3.32031C8.69184 3.32248 9.02982 3.43184 9.31241 3.63344C9.595 3.83504 9.80841 4.11902 9.92343 4.44654C10.3924 5.64543 10.8383 6.85752 11.3436 8.0399C11.4809 8.3504 11.7229 8.60287 12.0273 8.75328C13.1568 9.24539 14.3094 9.69456 15.472 10.1074C16.2911 10.398 16.7931 10.9397 16.8162 11.7852C16.8393 12.6307 16.2845 13.136 15.5347 13.4365C14.3623 13.8923 13.1766 14.3151 12.0174 14.8039C11.7367 14.935 11.5111 15.1606 11.3799 15.4413C10.8878 16.6038 10.4386 17.7862 9.99608 18.9686C9.71865 19.7084 9.23647 20.1708 8.424 20.1939C7.61153 20.217 7.1029 19.7579 6.79905 19.0346C6.35979 17.9414 5.88752 16.8548 5.53413 15.7319C5.4583 15.4717 5.31807 15.2348 5.12641 15.0431C4.93475 14.8515 4.69785 14.7112 4.43762 14.6354C3.38405 14.2391 2.3371 13.8362 1.28353 13.4431C0.494181 13.1459 -0.0375575 12.6703 0.00207509 11.7455C0.0417077 10.8208 0.566834 10.4245 1.29673 10.1206C2.34039 9.70776 3.37744 9.27511 4.44421 8.93493C4.7038 8.86314 4.94077 8.72627 5.13266 8.53727C5.32454 8.34827 5.46499 8.11341 5.54072 7.85495C5.94695 6.74854 6.373 5.64543 6.80236 4.55223C6.90999 4.21808 7.11369 3.92303 7.38799 3.70394C7.6623 3.48485 7.99504 3.35142 8.34472 3.32031ZM8.37115 7.61384C7.96491 10.0083 6.54145 11.2468 4.26918 11.772C6.58108 12.2443 7.9418 13.5092 8.23244 16.016C8.80711 14.8534 9.07464 13.7767 9.74509 13.1096C10.4155 12.4424 11.4889 12.1881 12.6217 11.6365C10.1843 11.3063 8.85334 9.95877 8.37115 7.62045V7.61384Z" fill="#F5A603"/>
<path d="M16.796 7.39533C16.5185 7.03203 16.2411 6.81735 16.1718 6.54653C15.9174 5.55571 15.4121 4.89517 14.3619 4.67059C14.0811 4.61114 13.8665 4.22803 13.6221 3.99354C13.8764 3.73592 14.0845 3.33299 14.3883 3.24381C14.8266 3.14865 15.2272 2.92662 15.5403 2.60537C15.8533 2.28413 16.0649 1.87788 16.1486 1.43724C16.2079 1.28351 16.3029 1.1461 16.4258 1.0364C16.5487 0.926702 16.696 0.847866 16.8554 0.806417C17.047 0.776692 17.4598 1.13669 17.516 1.38439C17.7406 2.45447 18.4011 3.00272 19.3985 3.30327C19.6561 3.38253 19.993 3.71281 19.9996 3.93409C19.9666 4.08146 19.8982 4.21859 19.8004 4.33366C19.7026 4.44874 19.5783 4.5383 19.4381 4.59463C18.4209 4.9249 17.7207 5.45664 17.516 6.57626C17.4631 6.83387 17.1163 7.03864 16.796 7.39533Z" fill="#F5A603"/>
</svg>
