<svg width="20" height="21" viewBox="0 0 20 21" fill="none" xmlns="http://www.w3.org/2000/svg">
<path d="M10.0161 4.1061H1.55156C1.34057 4.12542 1.12882 4.11263 0.919544 4.06791C0.671058 4.01445 0.44394 3.82706 0.280452 3.54062C0.116965 3.25418 0.0282333 2.88818 0.0307639 2.51072C0.010085 2.13423 0.0837103 1.75972 0.237176 1.46064C0.390641 1.16157 0.612871 0.959508 0.860286 0.894126C1.114 0.82115 1.37249 0.792681 1.63057 0.809273C7.19833 0.809273 12.7642 0.809273 18.3282 0.809273C19.47 0.809273 20.0268 1.37501 19.9985 2.50648C19.9732 3.58845 19.4342 4.08912 18.3056 4.08912L10.0161 4.1061Z" fill="#F5A603"/>
<path d="M9.95488 12.1423H1.56937C1.33516 12.1625 1.10018 12.1397 0.869642 12.0744C0.621448 12.0057 0.398471 11.8031 0.242605 11.5047C0.0867386 11.2062 0.00871253 10.8324 0.0231911 10.4535C0.0146753 10.0934 0.0918122 9.74052 0.240745 9.45823C0.389678 9.17594 0.600652 8.98274 0.835785 8.91332C1.08842 8.8388 1.34598 8.80888 1.60323 8.82421H18.5153C19.4633 8.82421 20.0107 9.46491 19.9938 10.5214C19.9768 11.5779 19.4492 12.1465 18.5435 12.1465L9.95488 12.1423Z" fill="#F5A603"/>
<path d="M16.8954 16.8512C17.5302 16.8512 18.165 16.83 18.7971 16.8512C19.5081 16.8767 20.0075 17.5895 19.999 18.523C19.9958 18.7449 19.9631 18.9637 19.9029 19.1664C19.8427 19.3691 19.7562 19.5517 19.6484 19.7034C19.5407 19.8552 19.4139 19.9731 19.2754 20.0501C19.137 20.1272 18.9897 20.162 18.8422 20.1523C17.55 20.1919 16.2577 20.1919 14.9655 20.1523C14.8118 20.1671 14.6579 20.1327 14.5138 20.0513C14.3697 19.9699 14.2387 19.8433 14.1296 19.68C14.0205 19.5167 13.9357 19.3204 13.8809 19.1041C13.826 18.8878 13.8024 18.6565 13.8115 18.4254C13.8397 17.5046 14.294 16.8767 14.9937 16.8512C15.6257 16.83 16.2605 16.8512 16.8954 16.8512Z" fill="#F5A603"/>
<path d="M3.1574 16.8557C3.78942 16.8557 4.42426 16.826 5.05909 16.8557C5.76165 16.8939 6.1877 17.5346 6.20745 18.4765C6.21362 18.7005 6.18851 18.924 6.13371 19.1325C6.07891 19.341 5.99565 19.5299 5.8893 19.6871C5.78296 19.8442 5.65587 19.966 5.51628 20.0448C5.37668 20.1235 5.22767 20.1573 5.07885 20.144C3.76214 20.1921 2.44544 20.1921 1.12874 20.144C0.980856 20.1516 0.833495 20.1138 0.695615 20.033C0.557734 19.9523 0.43222 19.8302 0.32667 19.6742C0.22112 19.5183 0.137744 19.3317 0.081614 19.1258C0.025484 18.9199 -0.00223722 18.699 0.00014104 18.4765C0.0133475 18.0301 0.143117 17.6095 0.361284 17.306C0.579452 17.0025 0.868409 16.8407 1.16542 16.8557C1.83412 16.809 2.49999 16.8515 3.1574 16.8557Z" fill="#F5A603"/>
<path d="M9.93196 20.1741C9.41562 20.1741 8.9021 20.1741 8.38576 20.1741C7.59856 20.1359 7.14148 19.491 7.15559 18.4769C7.1697 17.4628 7.61267 16.8857 8.37166 16.873C9.47204 16.8518 10.5724 16.8475 11.67 16.873C12.4149 16.873 12.8663 17.5307 12.872 18.5108C12.8776 19.491 12.4318 20.1274 11.6869 20.1826C11.3822 20.208 11.0775 20.1826 10.7728 20.1826L9.93196 20.1741Z" fill="#F5A603"/>
</svg>
