<svg width="35" height="34" viewBox="0 0 35 34" fill="none" xmlns="http://www.w3.org/2000/svg">
<path d="M4.75 8.5H7.58333H30.25" stroke="black" stroke-width="2" stroke-linecap="round" stroke-linejoin="round"/>
<path d="M27.4166 8.50065V28.334C27.4166 29.0854 27.1181 29.8061 26.5867 30.3375C26.0554 30.8688 25.3347 31.1673 24.5833 31.1673H10.4166C9.66514 31.1673 8.94447 30.8688 8.41312 30.3375C7.88176 29.8061 7.58325 29.0854 7.58325 28.334V8.50065M11.8333 8.50065V5.66732C11.8333 4.91587 12.1318 4.1952 12.6631 3.66385C13.1945 3.1325 13.9151 2.83398 14.6666 2.83398H20.3333C21.0847 2.83398 21.8054 3.1325 22.3367 3.66385C22.8681 4.1952 23.1666 4.91587 23.1666 5.66732V8.50065" stroke="black" stroke-width="2" stroke-linecap="round" stroke-linejoin="round"/>
</svg>
