<svg width="23" height="22" viewBox="0 0 23 22" fill="none" xmlns="http://www.w3.org/2000/svg">
<path d="M10.4938 1.19338C10.5452 1.06802 10.6327 0.960782 10.7453 0.885307C10.8578 0.809832 10.9902 0.769531 11.1257 0.769531C11.2612 0.769531 11.3936 0.809832 11.5061 0.885307C11.6186 0.960782 11.7061 1.06802 11.7575 1.19338L14.3395 7.40359C14.3879 7.5198 14.4673 7.62041 14.5691 7.69437C14.671 7.76833 14.7912 7.81277 14.9167 7.82279L21.6214 8.35985C22.2278 8.40846 22.4732 9.16544 22.0115 9.56034L16.9033 13.937C16.8079 14.0187 16.7368 14.125 16.6978 14.2444C16.6588 14.3638 16.6534 14.4916 16.6822 14.6138L18.2435 21.157C18.2749 21.2882 18.2667 21.4259 18.2199 21.5525C18.1731 21.6791 18.0899 21.789 17.9806 21.8683C17.8714 21.9476 17.7412 21.9927 17.6063 21.9981C17.4714 22.0034 17.338 21.9686 17.2229 21.8981L11.4817 18.3927C11.3745 18.3272 11.2513 18.2925 11.1257 18.2925C11 18.2925 10.8769 18.3272 10.7697 18.3927L5.02846 21.8994C4.91334 21.9698 4.77992 22.0046 4.64505 21.9993C4.51018 21.994 4.37992 21.9488 4.2707 21.8695C4.16149 21.7902 4.07823 21.6803 4.03144 21.5537C3.98464 21.4271 3.97642 21.2894 4.0078 21.1582L5.56916 14.6138C5.59812 14.4916 5.5928 14.3637 5.55378 14.2443C5.51476 14.1249 5.44357 14.0186 5.34802 13.937L0.239871 9.56034C0.137007 9.47265 0.0624798 9.35641 0.0257275 9.22634C-0.0110248 9.09626 -0.00834823 8.95821 0.033418 8.82966C0.0751843 8.70111 0.154161 8.58784 0.260347 8.50421C0.366532 8.42058 0.495149 8.37034 0.629909 8.35985L7.33466 7.82279C7.46011 7.81277 7.58037 7.76833 7.6822 7.69437C7.78403 7.62041 7.86348 7.5198 7.91181 7.40359L10.4938 1.19338Z" fill="#F5A603"/>
</svg>
